<svg class="img-fluid" id="outputsvg" xmlns="http://www.w3.org/2000/svg" width="1168" height="1168"
     viewBox="0 0 11680 11680">
>
    <g id="l4EAgyXtCByMIVueOstTUEI" fill="rgb(235,90,40)" style="transform: none;">
        <g>
            <path id="pu65xmXBk"
                  d="M3377 10729 c-19 -11 -47 -60 -47 -84 0 -8 9 -15 20 -15 13 0 20 7 20 20 0 15 9 22 30 27 32 6 40 29 18 51 -14 14 -18 14 -41 1z"></path>
            <path id="pSCGwHBwp"
                  d="M3400 10636 c0 -13 3 -44 6 -70 5 -37 11 -46 26 -46 20 0 21 13 2 113 -7 33 -34 36 -34 3z"></path>
            <path id="p60uagYAH"
                  d="M3290 10554 c-25 -58 -25 -74 0 -74 15 0 20 7 20 25 0 14 5 25 10 25 6 0 10 16 10 35 0 48 -17 44 -40 -11z"></path>
            <path id="p13XNKKnD0"
                  d="M2088 10458 c-44 -81 -70 -146 -87 -219 -11 -46 -31 -116 -44 -154 -28 -79 -57 -177 -57 -194 0 -6 9 -11 20 -11 16 0 20 7 20 35 0 19 4 35 9 35 6 0 13 20 17 45 3 25 10 45 14 45 9 0 30 71 30 104 0 14 4 26 10 26 5 0 12 27 16 60 4 33 10 60 14 60 5 0 11 14 15 30 4 17 11 30 16 30 5 0 9 9 9 20 0 11 9 29 20 40 24 24 27 70 5 70 -8 0 -20 -10 -27 -22z"></path>
            <path id="p17bIJZDJk"
                  d="M3232 10383 c-19 -56 -42 -165 -42 -195 0 -5 9 -8 20 -8 14 0 20 7 20 23 0 35 34 177 42 177 5 0 8 16 8 35 0 58 -24 41 -48 -32z"></path>
            <path id="pPKUCExq0"
                  d="M2090 10285 c0 -38 3 -45 20 -45 17 0 20 7 20 45 0 38 -3 45 -20 45 -17 0 -20 -7 -20 -45z"></path>
            <path id="p1HHacNEsZ"
                  d="M3490 10275 c0 -30 3 -35 24 -35 23 0 24 2 13 35 -6 19 -16 35 -24 35 -8 0 -13 -13 -13 -35z"></path>
            <path id="pJLO4kc1w"
                  d="M2100 10198 c0 -13 5 -60 12 -105 9 -70 14 -83 30 -83 10 0 18 3 18 8 0 7 -16 112 -25 170 -7 37 -35 45 -35 10z"></path>
            <path id="p1CL6A3856"
                  d="M3540 10180 c0 -37 19 -80 37 -80 8 0 13 -12 13 -30 0 -20 5 -30 15 -30 8 0 15 -9 15 -20 0 -11 7 -20 15 -20 9 0 15 -9 15 -25 0 -20 5 -25 25 -25 14 0 25 4 25 9 0 6 -19 38 -43 73 -23 35 -55 89 -71 121 -30 63 -46 72 -46 27z"></path>
            <path id="p12EemweN6" d="M3186 10148 c-12 -45 -7 -68 14 -68 17 0 20 7 20 45 0 49 -23 64 -34 23z"></path>
            <path id="pP2mcY7Nw"
                  d="M3176 10038 c-3 -13 -6 -40 -6 -60 0 -31 4 -38 20 -38 18 0 20 7 20 60 0 44 -4 60 -14 60 -7 0 -16 -10 -20 -22z"></path>
            <path id="p187Qtj8yG"
                  d="M2134 9938 c3 -34 18 -126 33 -205 23 -122 29 -143 45 -143 10 0 18 3 18 6 0 3 -13 79 -30 167 -16 89 -32 179 -35 200 -4 25 -11 37 -22 37 -13 0 -15 -9 -9 -62z"></path>
            <path id="pNZN1fEZa"
                  d="M3721 9898 c-1 -21 4 -38 9 -38 6 0 10 -5 10 -10 0 -21 64 -80 87 -80 18 0 23 -5 23 -25 0 -22 4 -25 36 -25 l36 0 -74 74 c-40 41 -85 89 -100 108 l-27 33 0 -37z"></path>
            <path id="p7Kf8wvZT"
                  d="M1870 9788 c-18 -66 -80 -398 -80 -430 0 -5 9 -8 19 -8 16 0 21 13 31 88 7 48 21 130 32 182 11 52 22 114 25 138 3 23 10 42 14 42 5 0 9 16 9 35 0 23 -5 35 -14 35 -9 0 -22 -29 -36 -82z"></path>
            <path id="phTSgNT4B"
                  d="M3170 9814 c0 -34 35 -275 47 -321 3 -13 12 -23 20 -23 17 0 18 -8 -12 200 -8 58 -15 122 -15 143 0 30 -4 37 -20 37 -16 0 -20 -7 -20 -36z"></path>
            <path id="pr1yTHaES"
                  d="M3930 9681 c0 -21 5 -31 15 -31 8 0 15 -4 15 -10 0 -5 11 -10 25 -10 18 0 25 -5 25 -20 0 -11 7 -20 15 -20 8 0 15 -4 15 -10 0 -5 11 -12 25 -16 14 -3 25 -10 25 -15 0 -5 7 -9 15 -9 8 0 15 -4 15 -10 0 -5 5 -10 11 -10 6 0 17 -7 25 -15 16 -15 84 -21 84 -7 0 4 -49 38 -108 75 -59 38 -128 84 -154 104 l-48 35 0 -31z"></path>
            <path id="pSzttlFp5"
                  d="M2210 9553 c0 -15 7 -53 16 -85 13 -44 21 -58 35 -58 24 0 24 4 -3 95 -22 75 -48 101 -48 48z"></path>
            <path id="p6ZFmJVL9"
                  d="M4350 9425 c0 -20 5 -25 25 -25 14 0 25 -4 25 -10 0 -5 11 -10 24 -10 13 0 26 -5 28 -11 2 -6 25 -13 52 -16 62 -7 60 14 -5 39 -24 9 -68 25 -96 37 l-53 21 0 -25z"></path>
            <path id="pslnzR3SD" d="M3253 9378 c19 -46 37 -48 37 -4 0 32 -3 36 -25 36 -24 0 -25 -1 -12 -32z"></path>
            <path id="pHK3pCf82"
                  d="M2270 9364 c0 -35 31 -134 42 -134 4 0 8 -9 8 -19 0 -30 11 -51 26 -51 9 0 14 -12 14 -35 0 -31 3 -35 25 -35 l25 0 -16 38 c-21 49 -67 167 -85 216 -17 48 -39 59 -39 20z"></path>
            <path id="p1C0wM1WBT" d="M1786 9308 c-10 -38 -7 -48 14 -48 16 0 20 7 20 35 0 40 -24 49 -34 13z"></path>
            <path id="p15YSid8Yh" d="M3303 9258 c19 -46 37 -48 37 -4 0 32 -3 36 -25 36 -24 0 -25 -1 -12 -32z"></path>
            <path id="p18WhCiWNT" d="M4780 9271 c0 -19 34 -31 86 -31 41 0 27 27 -20 39 -60 15 -66 14 -66 -8z"></path>
            <path id="ppVMOR2yH"
                  d="M4900 9243 c0 -14 19 -23 83 -40 223 -60 760 -163 937 -179 60 -6 70 -5 70 9 0 10 -11 18 -32 21 -381 57 -752 129 -943 181 -107 30 -115 30 -115 8z"></path>
            <path id="p136tc8LYc" d="M1776 9228 c-11 -42 -7 -58 14 -58 17 0 20 7 20 40 0 45 -23 57 -34 18z"></path>
            <path id="pUP4g7CFd"
                  d="M3380 9124 c0 -12 63 -104 72 -104 4 0 8 16 8 35 0 24 -5 35 -15 35 -8 0 -15 9 -15 20 0 15 -7 20 -25 20 -14 0 -25 -3 -25 -6z"></path>
            <path id="p140u6x5Sv"
                  d="M422 9091 c-7 -4 -15 -31 -19 -59 -5 -48 -4 -52 16 -52 11 0 21 -6 21 -12 0 -7 14 -77 31 -155 27 -120 35 -143 51 -143 23 0 23 -4 -12 146 -17 71 -35 157 -40 193 -9 67 -26 96 -48 82z"></path>
            <path id="p17bpaidSx"
                  d="M6000 9030 c0 -18 7 -20 55 -20 40 0 55 4 55 14 0 16 -30 26 -77 26 -26 0 -33 -4 -33 -20z"></path>
            <path id="pGSpaVIeJ"
                  d="M6120 9020 c0 -17 7 -20 50 -20 36 0 50 4 50 14 0 15 -30 26 -72 26 -21 0 -28 -5 -28 -20z"></path>
            <path id="ppi7Acg9s"
                  d="M6230 9010 c0 -17 7 -20 50 -20 36 0 50 4 50 14 0 15 -30 26 -72 26 -21 0 -28 -5 -28 -20z"></path>
            <path id="pxgDxhuch"
                  d="M6340 9000 c0 -17 7 -20 50 -20 36 0 50 4 50 14 0 15 -30 26 -72 26 -21 0 -28 -5 -28 -20z"></path>
            <path id="pBh9L7Ins"
                  d="M6450 8990 c0 -18 7 -20 55 -20 40 0 55 4 55 14 0 16 -30 26 -77 26 -26 0 -33 -4 -33 -20z"></path>
            <path id="p8dgFZnmA"
                  d="M6570 8980 c0 -17 7 -20 50 -20 36 0 50 4 50 14 0 15 -30 26 -72 26 -21 0 -28 -5 -28 -20z"></path>
            <path id="poNC0Xn5h" d="M6690 8970 c0 -16 7 -20 35 -20 40 0 49 24 13 34 -38 10 -48 7 -48 -14z"></path>
            <path id="p1Ey0Kaoot"
                  d="M2450 8945 c0 -19 5 -35 10 -35 6 0 10 -9 10 -20 0 -11 5 -20 10 -20 6 0 10 -7 10 -15 0 -8 5 -15 10 -15 6 0 10 -7 10 -15 0 -8 9 -15 20 -15 16 0 20 -7 20 -35 0 -32 2 -35 30 -35 l29 0 -51 83 c-28 45 -60 99 -70 120 -23 46 -38 47 -38 2z"></path>
            <path id="pXqwlKzsv"
                  d="M6910 8960 c0 -17 7 -20 50 -20 36 0 50 4 50 14 0 15 -30 26 -72 26 -21 0 -28 -5 -28 -20z"></path>
            <path id="pmnmi39jU"
                  d="M7100 8950 c0 -18 7 -20 75 -20 57 0 75 3 75 14 0 17 -31 26 -97 26 -46 0 -53 -3 -53 -20z"></path>
            <path id="p4bvMvzkC" d="M3510 8930 c31 -44 40 -45 40 -6 0 33 -2 36 -31 36 l-30 0 21 -30z"></path>
            <path id="p6WPymLyC"
                  d="M7390 8940 c0 -17 7 -20 50 -20 36 0 50 4 50 14 0 15 -30 26 -72 26 -21 0 -28 -5 -28 -20z"></path>
            <path id="pR0ETvWl9"
                  d="M7560 8930 c0 -16 7 -20 38 -20 50 0 478 -75 572 -100 41 -11 87 -20 103 -20 15 0 27 -4 27 -8 0 -9 124 -42 158 -42 12 0 22 -4 22 -8 0 -11 69 -32 104 -32 48 0 23 24 -49 48 -215 73 -583 155 -865 193 -99 13 -110 12 -110 -11z"></path>
            <path id="pkjBfzR81"
                  d="M3591 8843 c25 -34 104 -115 132 -134 l27 -20 0 30 c0 28 -3 31 -29 31 -26 0 -30 4 -33 33 -2 24 -8 33 -25 35 -15 2 -23 10 -23 23 0 15 -7 19 -31 19 -28 0 -30 -2 -18 -17z"></path>
            <path id="pU613aNB"
                  d="M1770 8713 c0 -43 11 -73 26 -73 10 0 14 14 14 50 0 43 -3 50 -20 50 -15 0 -20 -7 -20 -27z"></path>
            <path id="pozGoNDG"
                  d="M8630 8690 c0 -15 7 -20 25 -20 14 0 25 -4 25 -10 0 -5 11 -10 25 -10 14 0 25 -4 25 -9 0 -12 56 -31 92 -31 52 0 26 23 -72 62 -107 44 -120 45 -120 18z"></path>
            <path id="ppiDPUUIp"
                  d="M3770 8666 c0 -8 141 -116 151 -116 5 0 9 11 9 25 0 18 -5 25 -20 25 -11 0 -20 7 -20 15 0 9 -9 15 -25 15 -18 0 -25 5 -25 20 0 16 -7 20 -35 20 -19 0 -35 -2 -35 -4z"></path>
            <path id="ptTeUc8Fl" d="M2680 8606 c0 -33 2 -36 31 -36 l30 0 -21 30 c-31 44 -40 45 -40 6z"></path>
            <path id="pluWUl7Ae"
                  d="M1780 8608 c0 -39 12 -68 26 -68 10 0 14 13 14 45 0 38 -3 45 -20 45 -14 0 -20 -7 -20 -22z"></path>
            <path id="pO4yCZTjf" d="M8870 8596 c0 -26 17 -36 61 -36 50 0 34 24 -35 50 -23 9 -26 7 -26 -14z"></path>
            <path id="p17XW7rex0"
                  d="M540 8545 c0 -19 5 -35 10 -35 6 0 10 -16 10 -35 0 -19 5 -35 10 -35 6 0 10 -16 10 -35 0 -30 3 -35 23 -35 l24 0 -31 105 c-31 107 -56 139 -56 70z"></path>
            <path id="p14NBe2lb6"
                  d="M3961 8524 c13 -15 68 -46 114 -64 22 -8 25 -7 25 13 0 17 -11 28 -45 45 -25 12 -59 22 -76 22 -28 0 -30 -2 -18 -16z"></path>
            <path id="pZbBOPIAS"
                  d="M1790 8503 c0 -43 11 -73 26 -73 10 0 14 14 14 50 0 43 -3 50 -20 50 -15 0 -20 -7 -20 -27z"></path>
            <path id="pnB3nvfgh"
                  d="M9130 8466 c0 -24 16 -36 51 -36 10 0 19 -7 19 -15 0 -10 11 -15 35 -15 28 0 35 -4 35 -19 0 -10 7 -22 16 -25 22 -9 74 -7 74 2 0 7 -212 132 -224 132 -3 0 -6 -11 -6 -24z"></path>
            <path id="pZtBtGyay"
                  d="M4110 8452 c0 -4 26 -23 58 -41 122 -72 173 -133 187 -223 8 -54 35 -52 35 2 0 22 -4 40 -10 40 -5 0 -10 16 -10 35 0 19 -4 35 -10 35 -5 0 -10 7 -10 15 0 10 -10 15 -30 15 -27 0 -30 3 -30 30 0 23 -4 30 -20 30 -11 0 -20 6 -20 14 0 15 -21 26 -51 26 -10 0 -19 7 -19 15 0 10 -11 15 -35 15 -19 0 -35 -3 -35 -8z"></path>
            <path id="pIowJ1jrr"
                  d="M1800 8400 c0 -82 50 -389 105 -645 33 -150 98 -365 112 -365 19 0 16 46 -6 121 -80 265 -171 731 -171 875 0 27 -4 34 -20 34 -13 0 -20 -7 -20 -20z"></path>
            <path id="pvOKdRz60"
                  d="M2980 8311 c0 -20 5 -31 14 -31 8 0 16 -7 20 -15 3 -8 15 -15 26 -15 11 0 20 -7 20 -15 0 -9 9 -15 25 -15 16 0 25 -6 25 -15 0 -10 10 -15 30 -15 23 0 30 -4 30 -20 0 -15 7 -20 25 -20 16 0 25 -6 25 -15 0 -10 11 -15 35 -15 44 0 44 10 3 35 -42 23 -180 115 -235 155 l-43 31 0 -30z"></path>
            <path id="p69J14Cr3"
                  d="M9400 8305 c0 -21 5 -25 30 -25 23 0 30 -4 30 -20 0 -16 7 -20 30 -20 23 0 30 -4 30 -20 0 -16 7 -20 35 -20 19 0 35 3 35 8 -1 8 -172 122 -183 122 -4 0 -7 -11 -7 -25z"></path>
            <path id="pPkXJgnVu" d="M630 8255 c0 -28 4 -35 20 -35 22 0 26 20 10 51 -16 30 -30 23 -30 -16z"></path>
            <path id="puSVvfylB"
                  d="M400 8208 c0 -39 12 -68 26 -68 10 0 14 13 14 45 0 38 -3 45 -20 45 -14 0 -20 -7 -20 -22z"></path>
            <path id="p10sHRmkCE" d="M9630 8151 c0 -29 3 -31 36 -31 39 0 38 9 -6 40 l-30 21 0 -30z"></path>
            <path id="p1BDvDdlUr"
                  d="M6805 8135 c-210 -21 -281 -33 -448 -75 -271 -69 -448 -136 -743 -281 -298 -147 -577 -353 -780 -576 -241 -265 -359 -436 -513 -748 -188 -379 -286 -693 -347 -1110 -25 -169 -25 -581 0 -750 31 -210 138 -604 207 -758 121 -271 178 -389 234 -477 143 -228 174 -271 303 -423 127 -148 245 -269 351 -360 53 -45 98 -84 101 -87 25 -29 218 -172 310 -229 646 -402 1288 -543 2130 -466 332 31 634 113 934 254 59 28 110 51 112 51 10 0 235 134 334 199 337 220 545 405 746 666 298 387 428 660 563 1180 83 323 114 778 77 1140 -68 668 -377 1323 -874 1854 -300 321 -671 573 -1122 764 -260 109 -537 181 -860 222 -174 22 -540 27 -715 10z m2745 -4251 c115 -108 127 -187 60 -388 -22 -66 -55 -145 -72 -175 -89 -160 -278 -355 -445 -460 -101 -63 -309 -143 -511 -197 l-143 -37 -21 20 c-25 26 -35 98 -19 146 11 33 55 80 184 198 60 54 154 175 269 345 221 327 408 520 563 581 57 22 83 16 135 -33z"></path>
            <path id="p9Yu9sdoV" d="M4339 8060 l-26 -80 23 0 c19 0 26 9 39 52 36 123 3 149 -36 28z"></path>
            <path id="p75nUayeE"
                  d="M693 8064 c2 -26 9 -49 14 -53 6 -3 13 -23 17 -43 4 -21 11 -38 16 -38 6 0 10 -11 10 -25 0 -14 5 -25 10 -25 6 0 10 -13 10 -30 0 -25 4 -30 25 -30 l25 0 -36 98 c-20 53 -43 118 -52 145 -21 64 -47 65 -39 1z"></path>
            <path id="pNoC6QWoP"
                  d="M3330 8087 c0 -18 16 -30 85 -65 47 -23 94 -42 105 -42 11 0 20 -4 20 -8 0 -9 59 -32 82 -32 9 0 18 -5 20 -11 5 -15 233 -77 335 -91 63 -9 98 -9 152 1 39 7 71 17 71 22 0 5 11 9 24 9 14 0 31 7 40 15 8 8 19 15 25 15 6 0 11 13 11 29 l0 30 -56 -34 c-72 -44 -170 -66 -244 -55 -155 22 -372 96 -562 191 -54 27 -100 49 -103 49 -3 0 -5 -10 -5 -23z"></path>
            <path id="p19e63aq3W"
                  d="M9720 8081 c0 -24 4 -31 20 -31 11 0 20 -7 20 -15 0 -9 9 -15 25 -15 18 0 25 -5 25 -20 0 -15 7 -20 25 -20 18 0 25 -5 25 -20 0 -24 17 -33 57 -28 27 3 25 6 -47 64 -41 33 -92 73 -112 88 l-38 28 0 -31z"></path>
            <path id="pjU1xybk4"
                  d="M410 8038 c0 -30 13 -58 26 -58 9 0 14 12 14 35 0 28 -4 35 -20 35 -11 0 -20 -6 -20 -12z"></path>
            <path id="pn8p0sopG"
                  d="M9950 7893 c0 -33 16 -53 42 -53 11 0 18 -7 18 -18 0 -30 44 -64 76 -60 28 3 28 3 -36 68 -36 36 -73 71 -82 79 -16 12 -18 11 -18 -16z"></path>
            <path id="pHfVcPBRc"
                  d="M435 7858 c12 -86 17 -98 32 -98 13 0 15 9 9 53 -3 28 -6 60 -6 70 0 11 -8 17 -21 17 -19 0 -20 -4 -14 -42z"></path>
            <path id="pNfSF6UMJ"
                  d="M820 7725 c0 -19 4 -35 9 -35 5 0 11 -18 15 -40 5 -34 10 -40 31 -40 l25 0 -25 66 c-13 36 -27 69 -30 75 -13 20 -25 7 -25 -26z"></path>
            <path id="prAieAxaw"
                  d="M460 7688 c0 -30 13 -58 26 -58 9 0 14 12 14 35 0 28 -4 35 -20 35 -11 0 -20 -6 -20 -12z"></path>
            <path id="p19feWZ63y" d="M10210 7626 c0 -33 2 -36 31 -36 l30 0 -21 30 c-31 44 -40 45 -40 6z"></path>
            <path id="pp26t0VR3"
                  d="M10280 7548 c0 -31 3 -38 20 -38 15 0 20 -7 20 -25 0 -21 5 -25 31 -25 l30 0 -20 28 c-11 15 -33 43 -50 62 l-30 35 -1 -37z"></path>
            <path id="p16y1Fogv5"
                  d="M480 7558 c0 -30 13 -58 26 -58 9 0 14 12 14 35 0 28 -4 35 -20 35 -11 0 -20 -6 -20 -12z"></path>
            <path id="p12DzHuzhr" d="M900 7528 c0 -43 12 -61 38 -56 l21 3 -19 43 c-23 50 -40 54 -40 10z"></path>
            <path id="proWK01cb" d="M950 7406 c0 -32 3 -36 25 -36 24 0 25 1 12 32 -19 46 -37 48 -37 4z"></path>
            <path id="pFV5PDRIs"
                  d="M10390 7406 c0 -25 4 -36 15 -36 8 0 15 -9 15 -20 0 -13 7 -20 20 -20 16 0 20 -7 20 -30 0 -16 4 -30 9 -30 5 0 11 -9 14 -20 3 -11 12 -20 21 -20 9 0 16 -8 16 -20 0 -11 7 -20 15 -20 9 0 15 -9 15 -25 0 -14 5 -25 10 -25 6 0 10 -7 10 -15 0 -8 5 -15 10 -15 6 0 10 -7 10 -15 0 -9 9 -15 25 -15 14 0 25 3 25 8 -1 17 -220 335 -240 347 -6 4 -10 -8 -10 -29z"></path>
            <path id="po0xv0Ucg"
                  d="M510 7420 c0 -37 24 -110 36 -110 15 0 17 23 8 83 -5 27 -11 37 -25 37 -11 0 -19 -4 -19 -10z"></path>
            <path id="pc3sNzt0I"
                  d="M540 7268 c0 -30 13 -58 26 -58 9 0 14 12 14 35 0 28 -4 35 -20 35 -11 0 -20 -6 -20 -12z"></path>
            <path id="p14Yfa1IRn"
                  d="M2060 7233 c1 -30 94 -256 108 -261 8 -2 12 8 12 32 0 20 -4 36 -10 36 -5 0 -10 11 -10 25 0 14 -4 25 -9 25 -5 0 -11 18 -15 40 -3 22 -10 40 -15 40 -5 0 -11 18 -15 40 -5 31 -11 40 -26 40 -13 0 -20 -7 -20 -17z"></path>
            <path id="p1Ego3Vu3k" d="M1060 7175 c0 -31 3 -35 25 -35 30 0 30 3 8 41 -23 38 -33 37 -33 -6z"></path>
            <path id="pdZbJiqKn"
                  d="M565 7153 c12 -70 28 -113 42 -113 16 0 17 29 1 97 -10 41 -17 53 -31 53 -17 0 -18 -5 -12 -37z"></path>
            <path id="p3xwAo7vp" d="M1130 7035 c0 -31 3 -35 25 -35 30 0 30 3 8 41 -23 38 -33 37 -33 -6z"></path>
            <path id="p1DgmfjPlC"
                  d="M10660 6995 c0 -24 5 -35 15 -35 9 0 15 -9 15 -24 0 -35 10 -56 26 -56 8 0 14 -10 14 -25 0 -20 5 -25 25 -25 14 0 25 2 25 4 0 13 -105 196 -112 196 -4 0 -8 -16 -8 -35z"></path>
            <path id="pY6Y5bJjm" d="M1200 6895 c0 -31 3 -35 25 -35 30 0 30 3 8 41 -23 38 -33 37 -33 -6z"></path>
            <path id="p7WHsXG0t" d="M2193 6888 c19 -46 37 -48 37 -4 0 32 -3 36 -25 36 -24 0 -25 -1 -12 -32z"></path>
            <path id="poTGMJwxo"
                  d="M630 6899 c0 -7 10 -47 22 -90 23 -85 48 -107 48 -44 0 19 -4 35 -10 35 -5 0 -10 11 -10 24 0 52 -12 86 -31 86 -11 0 -19 -5 -19 -11z"></path>
            <path id="pXpNJ4cQx"
                  d="M1270 6765 c0 -24 5 -35 15 -35 9 0 15 -9 15 -25 0 -20 5 -25 25 -25 14 0 25 3 25 6 0 12 -65 114 -72 114 -5 0 -8 -16 -8 -35z"></path>
            <path id="pmi6AqXq6" d="M10780 6765 c0 -31 3 -35 25 -35 29 0 30 2 10 40 -21 40 -35 38 -35 -5z"></path>
            <path id="pYCIwQAq7"
                  d="M2280 6714 c0 -10 21 -46 122 -214 96 -159 144 -232 364 -542 55 -79 116 -169 135 -200 18 -32 37 -58 41 -58 5 0 8 16 8 35 0 24 -5 35 -15 35 -9 0 -15 9 -15 25 0 16 -6 25 -15 25 -9 0 -15 9 -15 25 0 16 -6 25 -15 25 -8 0 -15 9 -15 20 0 13 -7 20 -20 20 -16 0 -20 7 -20 30 0 20 -5 30 -15 30 -8 0 -15 9 -15 20 0 11 -4 20 -10 20 -5 0 -10 7 -10 15 0 9 -9 15 -25 15 -22 0 -25 4 -25 35 0 24 -5 35 -15 35 -8 0 -15 9 -15 20 0 11 -4 20 -10 20 -5 0 -10 7 -10 15 0 8 -7 15 -15 15 -8 0 -15 9 -15 20 0 11 -4 20 -9 20 -5 0 -12 11 -15 25 -4 14 -11 25 -16 25 -6 0 -10 7 -10 15 0 8 -7 15 -15 15 -8 0 -15 9 -15 20 0 11 -7 20 -15 20 -8 0 -15 9 -15 20 0 11 -7 20 -15 20 -9 0 -15 9 -15 25 0 14 -4 25 -10 25 -5 0 -10 7 -10 15 0 8 -9 15 -20 15 -16 0 -20 7 -20 35 0 24 -5 35 -15 35 -9 0 -15 9 -15 25 0 14 -4 25 -10 25 -5 0 -10 7 -10 15 0 8 -9 15 -20 15 -15 0 -20 7 -20 30 0 46 -20 80 -47 80 -12 0 -23 -3 -23 -6z"></path>
            <path id="p14MBr0Vt6" d="M10830 6675 c0 -31 3 -35 26 -35 14 0 24 3 22 8 -35 73 -48 80 -48 27z"></path>
            <path id="pfCcuclNS"
                  d="M700 6648 c0 -30 13 -58 26 -58 9 0 14 12 14 35 0 28 -4 35 -20 35 -11 0 -20 -6 -20 -12z"></path>
            <path id="pufWAXSAS" d="M1370 6595 c0 -31 3 -35 25 -35 30 0 30 3 8 41 -23 38 -33 37 -33 -6z"></path>
            <path id="pSUAaAc3e" d="M10860 6600 c0 -46 20 -80 46 -80 21 0 22 3 14 25 -31 82 -60 109 -60 55z"></path>
            <path id="pfDgeUIaw" d="M730 6549 c0 -29 25 -89 37 -89 14 0 17 38 7 78 -6 22 -44 32 -44 11z"></path>
            <path id="pMmwxFKff" d="M1430 6495 c0 -32 2 -35 30 -35 l30 0 -22 35 c-29 44 -38 44 -38 0z"></path>
            <path id="pLRYF0jvd"
                  d="M10940 6405 c0 -19 3 -35 8 -35 4 0 13 -24 20 -52 7 -29 17 -54 22 -56 6 -2 10 -13 10 -25 0 -30 38 -159 48 -166 5 -3 12 -24 15 -46 3 -22 17 -94 32 -160 47 -214 65 -314 71 -400 6 -74 9 -85 25 -85 23 0 24 13 4 167 -16 116 -82 436 -109 523 -8 25 -30 97 -49 160 -59 192 -97 261 -97 175z"></path>
            <path id="pwnZNw5cA"
                  d="M1520 6355 c0 -24 5 -35 15 -35 8 0 15 -9 15 -20 0 -11 5 -20 10 -20 6 0 10 -7 10 -15 0 -9 9 -15 25 -15 22 0 25 -4 25 -35 0 -31 3 -35 25 -35 22 0 25 -4 25 -35 0 -32 2 -35 31 -35 l30 0 -45 63 c-26 34 -70 97 -99 139 -28 43 -55 78 -59 78 -5 0 -8 -16 -8 -35z"></path>
            <path id="pydJskpmb" d="M790 6355 c0 -25 28 -85 39 -85 12 0 14 42 5 78 -7 25 -44 31 -44 7z"></path>
            <path id="p12HvrLkRj" d="M853 6168 c19 -46 37 -48 37 -4 0 32 -3 36 -25 36 -24 0 -25 -1 -12 -32z"></path>
            <path id="p1CZsVrgpx"
                  d="M883 6083 c9 -44 45 -123 57 -123 5 0 10 16 10 35 0 19 -4 35 -9 35 -5 0 -11 18 -15 40 -5 32 -10 40 -27 40 -18 0 -21 -4 -16 -27z"></path>
            <path id="pCNiTz0rv"
                  d="M1740 6045 c0 -31 3 -35 25 -35 21 0 25 -5 25 -30 0 -27 3 -30 31 -30 l32 0 -27 33 c-15 17 -36 47 -49 64 -28 42 -37 41 -37 -2z"></path>
            <path id="pyIxpdY0z" d="M943 5918 c19 -46 37 -48 37 -4 0 32 -3 36 -25 36 -24 0 -25 -1 -12 -32z"></path>
            <path id="p1CMeS4RQv"
                  d="M1860 5898 c0 -31 3 -38 20 -38 15 0 20 -7 20 -25 0 -21 5 -25 31 -25 l30 0 -20 28 c-11 15 -33 43 -50 62 l-30 35 -1 -37z"></path>
            <path id="pPwwesBwo"
                  d="M969 5848 c17 -44 140 -344 169 -413 57 -135 92 -205 102 -205 6 0 10 16 10 35 0 24 -5 35 -15 35 -10 0 -15 10 -15 30 0 32 -29 100 -42 100 -4 0 -8 11 -8 25 0 16 -6 25 -15 25 -10 0 -15 11 -15 35 0 19 -4 35 -10 35 -5 0 -10 11 -10 25 0 14 -4 25 -10 25 -5 0 -10 11 -10 24 0 14 -6 31 -13 38 -8 7 -17 30 -21 51 -4 22 -13 37 -21 37 -10 0 -15 11 -15 35 0 19 -4 35 -10 35 -5 0 -10 11 -10 25 0 20 -5 25 -25 25 -21 0 -23 -3 -16 -22z"></path>
            <path id="pU98cqZ6L"
                  d="M1980 5748 c0 -34 3 -38 25 -38 21 0 25 -5 25 -30 0 -27 3 -30 31 -30 l30 0 -20 28 c-11 15 -36 45 -55 67 l-35 40 -1 -37z"></path>
            <path id="p175LSqvc9" d="M2120 5576 c0 -33 2 -36 31 -36 l30 0 -21 30 c-31 44 -40 45 -40 6z"></path>
            <path id="pDIuUTE0W"
                  d="M3005 5545 c14 -36 25 -80 25 -98 0 -48 11 -77 28 -77 12 0 14 11 8 73 -3 39 -13 93 -22 120 -13 38 -20 47 -39 47 l-24 0 24 -65z"></path>
            <path id="pvnmsh0We"
                  d="M2210 5477 c0 -33 3 -37 25 -37 20 0 25 -5 25 -24 0 -31 22 -48 56 -44 26 3 25 5 -40 72 l-66 69 0 -36z"></path>
            <path id="p1DRFdking"
                  d="M11183 5278 c4 -46 7 -107 7 -135 0 -48 2 -53 22 -53 21 0 21 2 14 112 -8 133 -13 158 -34 158 -13 0 -14 -12 -9 -82z"></path>
            <path id="pceWwd9mx"
                  d="M3036 5328 c-3 -13 -6 -44 -6 -70 0 -41 3 -48 20 -48 18 0 20 7 20 70 0 53 -3 70 -14 70 -7 0 -16 -10 -20 -22z"></path>
            <path id="p15EmSgyGt"
                  d="M2432 5249 c2 -29 7 -34 31 -37 21 -3 27 -9 27 -28 0 -21 4 -24 37 -24 l36 0 -50 48 c-85 81 -85 81 -81 41z"></path>
            <path id="pX9qjCQND"
                  d="M3021 5138 c-7 -24 -24 -66 -38 -95 -13 -29 -27 -68 -30 -87 -3 -19 -14 -43 -24 -52 -16 -14 -21 -15 -38 -3 -10 8 -45 33 -77 56 -33 23 -71 52 -86 64 l-28 21 0 -31 c0 -26 4 -31 25 -31 18 0 25 -5 25 -20 0 -11 7 -20 15 -20 8 0 15 -4 15 -10 0 -5 5 -10 11 -10 6 0 18 -9 27 -20 14 -16 32 -20 87 -22 l70 -3 9 55 c5 30 16 61 23 68 7 7 13 22 13 33 0 10 4 19 8 19 11 0 32 69 32 104 0 41 -25 31 -39 -16z"></path>
            <path id="p1C51Z0JYC"
                  d="M1280 5126 c21 -57 101 -206 110 -206 17 0 11 58 -12 105 -12 25 -28 45 -35 45 -7 0 -13 11 -13 24 0 39 -11 56 -36 56 -21 0 -22 -3 -14 -24z"></path>
            <path id="peO4JCjrO"
                  d="M11200 4985 c0 -50 3 -65 15 -65 18 0 29 57 20 99 -4 17 -13 31 -21 31 -11 0 -14 -16 -14 -65z"></path>
            <path id="pWeGWLuIt"
                  d="M1400 4884 c0 -6 82 -161 104 -196 17 -28 26 -21 26 17 0 28 -4 35 -20 35 -16 0 -20 7 -20 35 0 19 -4 35 -10 35 -5 0 -10 7 -10 15 0 32 -23 65 -47 65 -12 0 -23 -3 -23 -6z"></path>
            <path id="p3Tf8VHU8"
                  d="M11190 4813 c0 -159 -35 -420 -90 -682 -34 -161 -37 -191 -15 -191 8 0 15 3 15 6 0 3 15 78 34 167 19 89 40 189 45 222 19 104 51 407 51 478 0 60 -2 67 -20 67 -18 0 -20 -7 -20 -67z"></path>
            <path id="pP5lQXMlI"
                  d="M1630 4474 c0 -11 82 -143 96 -155 12 -9 14 -5 14 25 0 25 -4 36 -15 36 -9 0 -15 9 -15 25 0 16 -6 25 -15 25 -9 0 -15 9 -15 25 0 20 -5 25 -25 25 -14 0 -25 -3 -25 -6z"></path>
            <path id="pdq1beCGk"
                  d="M1770 4254 c0 -12 110 -181 125 -194 13 -11 15 -7 15 24 0 29 -4 36 -20 36 -16 0 -20 7 -20 30 0 20 -5 30 -15 30 -9 0 -15 9 -15 25 0 14 -4 25 -10 25 -5 0 -10 7 -10 15 0 9 -9 15 -25 15 -14 0 -25 -3 -25 -6z"></path>
            <path id="pXFKkej0w"
                  d="M1990 3916 c61 -91 70 -98 70 -52 0 29 -4 36 -20 36 -16 0 -20 7 -20 30 0 17 -4 30 -10 30 -5 0 -10 7 -10 15 0 10 -10 15 -30 15 l-31 0 51 -74z"></path>
            <path id="po2jkV8xI" d="M11050 3895 c0 -40 24 -49 34 -12 10 37 7 47 -14 47 -16 0 -20 -7 -20 -35z"></path>
            <path id="pwYxBwZvJ" d="M11020 3795 c0 -40 24 -49 34 -12 10 37 7 47 -14 47 -16 0 -20 -7 -20 -35z"></path>
            <path id="pushIDje4"
                  d="M2070 3811 c0 -9 79 -111 86 -111 2 0 4 16 4 35 0 28 -4 35 -20 35 -15 0 -20 7 -20 25 0 20 -5 25 -25 25 -14 0 -25 -4 -25 -9z"></path>
            <path id="pdQd8ijLP"
                  d="M10977 3667 c-9 -30 -17 -61 -17 -70 0 -8 -5 -17 -11 -19 -6 -2 -13 -25 -16 -51 -4 -36 -2 -47 8 -47 9 0 28 41 52 108 42 122 44 132 19 132 -13 0 -23 -15 -35 -53z"></path>
            <path id="puuI1e4cG"
                  d="M2170 3671 c0 -9 68 -101 75 -101 3 0 5 16 5 35 0 24 -5 35 -15 35 -8 0 -15 9 -15 20 0 15 -7 20 -25 20 -14 0 -25 -4 -25 -9z"></path>
            <path id="peJoK0ZHh"
                  d="M2334 3458 c14 -18 51 -66 82 -105 31 -40 60 -75 65 -79 5 -3 9 11 9 30 0 29 -4 36 -20 36 -15 0 -20 7 -20 25 0 14 -4 25 -10 25 -5 0 -10 7 -10 15 0 10 -10 15 -30 15 -28 0 -30 3 -30 35 0 33 -2 35 -31 35 l-32 0 27 -32z"></path>
            <path id="pfiKBNhum"
                  d="M10900 3435 c0 -23 -5 -35 -14 -35 -17 0 -26 -22 -26 -61 0 -46 19 -34 47 29 46 104 46 102 18 102 -22 0 -25 -4 -25 -35z"></path>
            <path id="pMHsUM05l"
                  d="M2538 3202 c12 -16 28 -35 37 -42 15 -12 16 -10 13 26 -3 36 -5 39 -37 42 l-33 3 20 -29z"></path>
            <path id="pPOiFzzkF"
                  d="M10776 3184 c-9 -25 -7 -74 4 -74 10 0 24 22 40 64 9 23 7 26 -14 26 -13 0 -27 -7 -30 -16z"></path>
            <path id="pFMGNfu4L" d="M2640 3090 c31 -44 40 -45 40 -6 0 33 -2 36 -31 36 l-30 0 21 -30z"></path>
            <path id="pyV8mgMgM" d="M10730 3065 c0 -43 10 -44 33 -6 22 38 22 41 -8 41 -22 0 -25 -4 -25 -35z"></path>
            <path id="p14wtUwwX5"
                  d="M10660 2955 c0 -8 -4 -15 -10 -15 -5 0 -10 -11 -10 -25 0 -15 -6 -25 -15 -25 -8 0 -17 -11 -21 -25 -3 -14 -10 -25 -15 -25 -5 0 -9 -7 -9 -15 0 -8 -4 -15 -10 -15 -5 0 -10 -13 -10 -30 0 -23 -4 -30 -20 -30 -11 0 -20 -7 -20 -15 0 -8 -4 -15 -10 -15 -5 0 -10 -9 -10 -20 0 -11 -7 -20 -15 -20 -10 0 -15 -11 -15 -35 0 -31 -3 -35 -25 -35 -21 0 -25 -5 -25 -30 0 -25 -4 -30 -25 -30 -18 0 -25 -5 -25 -20 0 -11 -7 -20 -15 -20 -10 0 -15 -11 -15 -35 0 -19 2 -35 4 -35 9 0 158 195 232 305 49 73 134 211 134 219 0 3 -11 6 -25 6 -16 0 -25 -6 -25 -15z"></path>
            <path id="p1EGuVIMFc"
                  d="M2995 2730 c3 -5 19 -19 35 -30 l30 -21 0 30 c0 29 -3 31 -36 31 -20 0 -33 -4 -29 -10z"></path>
            <path id="p1ABK2DXdl"
                  d="M3265 2484 c87 -77 394 -323 468 -376 l27 -19 0 30 c0 24 -4 31 -20 31 -11 0 -20 7 -20 15 0 8 -9 15 -20 15 -11 0 -20 7 -20 15 0 9 -9 15 -25 15 -18 0 -25 5 -25 20 0 13 -7 20 -20 20 -11 0 -20 7 -20 15 0 10 -11 15 -35 15 -32 0 -35 2 -35 30 0 23 -4 30 -20 30 -11 0 -20 7 -20 15 0 9 -9 15 -25 15 -18 0 -25 5 -25 20 0 16 -7 20 -30 20 -25 0 -30 4 -30 25 0 22 -4 25 -35 25 -32 0 -35 2 -35 30 0 28 -2 30 -37 30 l-38 -1 40 -35z"></path>
            <path id="p168xf7tpa"
                  d="M10250 2371 c0 -25 -4 -30 -27 -33 -25 -3 -28 -8 -31 -43 l-2 -40 41 45 c22 25 49 57 60 73 l20 27 -30 0 c-28 0 -31 -3 -31 -29z"></path>
            <path id="p1CGEiIbdI"
                  d="M10072 2198 c-7 -7 -12 -20 -12 -30 0 -11 -7 -18 -18 -18 -28 0 -54 -34 -50 -66 3 -28 3 -27 63 32 33 32 66 67 74 77 12 15 11 17 -16 17 -16 0 -34 -5 -41 -12z"></path>
            <path id="pEHqWbgvo"
                  d="M3778 2077 c6 -7 32 -28 57 -46 l45 -32 0 30 c0 24 -4 31 -20 31 -11 0 -20 7 -20 15 0 11 -11 15 -36 15 -29 0 -34 -3 -26 -13z"></path>
            <path id="p1Fcp2Ps1g"
                  d="M9880 1990 c0 -28 -3 -30 -35 -30 -32 0 -35 -2 -35 -31 l0 -30 28 20 c15 11 47 39 72 60 l45 40 -37 1 c-36 0 -38 -2 -38 -30z"></path>
            <path id="p16T1WawTa"
                  d="M3955 1950 c3 -6 33 -28 66 -50 l59 -41 0 31 c0 20 -5 30 -15 30 -8 0 -15 5 -15 10 0 6 -7 10 -15 10 -8 0 -15 5 -15 10 0 6 -16 10 -36 10 -21 0 -33 -4 -29 -10z"></path>
            <path id="pHsbuHEEq"
                  d="M4110 1846 c13 -16 103 -76 113 -76 4 0 7 11 7 25 0 21 -5 25 -30 25 -23 0 -30 4 -30 20 0 16 -7 20 -36 20 -31 0 -35 -2 -24 -14z"></path>
            <path id="p18mido6lK"
                  d="M9650 1815 c0 -8 -9 -15 -20 -15 -11 0 -20 -4 -20 -10 0 -5 -7 -10 -15 -10 -10 0 -15 -10 -15 -31 l0 -30 60 42 c85 59 91 69 46 69 -25 0 -36 -4 -36 -15z"></path>
            <path id="pHakfMCO9"
                  d="M4340 1702 c0 -8 52 -42 64 -42 3 0 6 11 6 25 0 22 -4 25 -35 25 -19 0 -35 -4 -35 -8z"></path>
            <path id="povXT4UUA"
                  d="M4430 1652 c0 -8 52 -42 64 -42 3 0 6 11 6 25 0 22 -4 25 -35 25 -19 0 -35 -4 -35 -8z"></path>
            <path id="pw1r3Hm29" d="M9360 1605 c0 -30 3 -30 41 -8 38 23 37 33 -6 33 -31 0 -35 -3 -35 -25z"></path>
            <path id="p15bbMOZD9" d="M9280 1555 c0 -30 3 -30 41 -8 38 23 37 33 -6 33 -31 0 -35 -3 -35 -25z"></path>
            <path id="p17zOKCJMX"
                  d="M4620 1551 c0 -12 299 -159 426 -210 27 -10 66 -27 87 -35 l37 -16 0 25 c0 22 -4 25 -35 25 -24 0 -35 5 -35 15 0 9 -9 15 -25 15 -14 0 -25 5 -25 10 0 6 -11 10 -25 10 -14 0 -25 5 -25 10 0 6 -13 10 -30 10 -20 0 -30 5 -30 15 0 10 -11 15 -35 15 -23 0 -35 5 -35 13 0 17 -42 37 -75 37 -16 0 -25 6 -25 15 0 10 -10 15 -30 15 -19 0 -30 5 -30 14 0 8 -7 17 -16 20 -24 9 -74 7 -74 -3z"></path>
            <path id="pDeoyORoM" d="M9130 1465 c0 -30 3 -30 41 -8 38 23 37 33 -6 33 -31 0 -35 -3 -35 -25z"></path>
            <path id="pEJ96BHqR"
                  d="M8960 1385 c0 -10 -11 -15 -35 -15 -31 0 -35 -3 -35 -25 0 -27 4 -27 93 15 56 26 60 40 12 40 -24 0 -35 -5 -35 -15z"></path>
            <path id="p10De18D9K"
                  d="M8730 1290 c0 -5 -11 -10 -24 -10 -14 0 -31 -7 -40 -15 -8 -8 -24 -15 -35 -15 -12 0 -21 -4 -21 -9 0 -5 -18 -11 -40 -15 -22 -3 -40 -11 -40 -16 0 -6 -13 -10 -30 -10 -25 0 -30 -4 -30 -24 l0 -25 85 30 c124 43 238 94 243 107 2 8 -9 12 -32 12 -20 0 -36 -4 -36 -10z"></path>
            <path id="p1CctguUxD"
                  d="M5260 1271 c0 -12 5 -15 68 -40 l52 -21 0 25 c0 20 -5 25 -25 25 -14 0 -25 5 -25 10 0 6 -16 10 -35 10 -19 0 -35 -4 -35 -9z"></path>
            <path id="pke0ad4pB"
                  d="M5400 1217 c0 -7 30 -22 70 -34 l70 -20 0 23 c0 21 -5 24 -35 24 -19 0 -35 5 -35 10 0 6 -16 10 -35 10 -22 0 -35 -5 -35 -13z"></path>
            <path id="p18P7AueB4"
                  d="M8390 1161 c0 -4 -19 -11 -42 -14 -24 -3 -44 -11 -46 -16 -2 -6 -16 -11 -32 -11 -15 0 -47 -7 -71 -16 -99 -35 -402 -103 -512 -115 -102 -11 -117 -14 -117 -31 0 -22 -4 -22 150 -3 140 18 412 84 604 147 133 44 169 68 102 68 -20 0 -36 -4 -36 -9z"></path>
            <path id="p10E44OuJs"
                  d="M5780 1106 c0 -13 28 -26 58 -26 6 0 12 9 12 20 0 16 -7 20 -35 20 -23 0 -35 -5 -35 -14z"></path>
            <path id="pyrfhigLe"
                  d="M5880 1076 c0 -13 28 -26 58 -26 6 0 12 9 12 20 0 16 -7 20 -35 20 -23 0 -35 -5 -35 -14z"></path>
            <path id="p13XBKdkwR"
                  d="M5970 1055 c0 -8 2 -15 4 -15 2 0 82 -15 177 -34 96 -19 198 -37 227 -41 48 -6 52 -5 52 14 0 17 -6 21 -31 21 -17 0 -110 16 -206 35 -197 39 -223 42 -223 20z"></path>
            <path id="p16UuogiGy"
                  d="M6440 976 c0 -7 10 -16 23 -20 41 -11 57 -7 57 14 0 17 -7 20 -40 20 -27 0 -40 -4 -40 -14z"></path>
            <path id="pRkvfBRVz"
                  d="M6540 966 c0 -7 10 -16 23 -20 41 -11 57 -7 57 14 0 17 -7 20 -40 20 -27 0 -40 -4 -40 -14z"></path>
            <path id="p18NXIZvgf"
                  d="M6640 956 c0 -15 30 -26 73 -26 20 0 27 5 27 20 0 17 -7 20 -50 20 -36 0 -50 -4 -50 -14z"></path>
            <path id="pfOLXPb5Y"
                  d="M7460 950 c0 -15 7 -20 28 -20 42 0 72 11 72 26 0 10 -14 14 -50 14 -43 0 -50 -3 -50 -20z"></path>
            <path id="paupsQxO3"
                  d="M6800 946 c0 -16 30 -26 83 -26 30 0 37 4 37 20 0 18 -7 20 -60 20 -44 0 -60 -4 -60 -14z"></path>
            <path id="phDQIvoLb"
                  d="M7240 940 c0 -18 7 -20 78 -20 90 0 122 7 122 26 0 11 -22 14 -100 14 -93 0 -100 -1 -100 -20z"></path>
        </g>
    </g>
    <g id="l7Jhpb1WrJzLtCeFyWE9zoT" fill="rgb(222,332,432)" style="transform: none;">
        <g>
            <path id="pP3RS8qDw"
                  d="M3364 10712 c-37 -44 -146 -353 -163 -464 -6 -35 -15 -132 -22 -216 -9 -130 -9 -175 6 -305 19 -174 37 -264 72 -357 32 -85 97 -214 137 -270 17 -25 38 -58 46 -74 42 -81 283 -329 419 -432 47 -35 149 -97 225 -136 175 -91 246 -155 266 -237 24 -101 -15 -233 -85 -286 -54 -42 -141 -68 -220 -68 -200 1 -613 166 -919 368 -151 100 -408 346 -500 480 -174 254 -323 585 -391 870 -26 108 -60 289 -70 370 -4 28 -13 97 -22 154 -8 58 -16 161 -17 230 -1 105 -4 126 -16 126 -20 0 -96 -154 -105 -213 -4 -25 -25 -100 -46 -165 -64 -195 -109 -369 -133 -522 -9 -55 -19 -113 -22 -130 -52 -291 -41 -792 30 -1297 16 -107 76 -403 100 -492 89 -318 130 -441 231 -687 75 -183 240 -483 367 -664 27 -38 84 -119 127 -180 239 -340 233 -331 303 -471 74 -148 88 -225 72 -406 -8 -94 -15 -125 -42 -182 -18 -38 -35 -86 -38 -108 -8 -46 -33 -64 -66 -47 -43 23 -194 143 -313 250 -186 166 -408 399 -535 563 -25 32 -70 88 -100 125 -242 294 -500 674 -656 966 -182 339 -336 674 -441 950 -24 66 -58 156 -75 200 -112 297 -265 829 -298 1039 -13 81 -15 86 -40 86 -29 0 -33 -98 -27 -594 l5 -441 37 -245 c20 -135 43 -276 51 -315 8 -38 24 -115 35 -170 183 -899 638 -2082 1088 -2825 142 -235 324 -511 456 -689 44 -59 106 -144 138 -187 31 -43 80 -106 107 -139 28 -33 76 -94 107 -135 183 -241 668 -722 988 -980 50 -39 119 -96 155 -124 217 -175 534 -397 755 -531 141 -85 560 -294 735 -367 230 -97 492 -186 677 -233 56 -14 113 -29 127 -35 15 -5 115 -28 224 -50 386 -80 813 -111 1233 -92 308 15 497 38 689 87 857 215 1551 598 2095 1156 204 209 391 448 545 694 55 88 230 423 230 440 0 4 14 39 32 78 101 231 202 595 267 970 62 352 57 992 -9 1326 -42 212 -73 350 -96 419 -13 40 -28 92 -35 115 -16 62 -93 275 -125 343 -120 261 -230 467 -334 623 -187 283 -264 377 -504 617 -254 254 -522 457 -848 643 -405 230 -816 372 -1333 461 -241 42 -331 49 -850 70 -277 12 -432 23 -895 65 -798 73 -1665 304 -2030 540 -182 119 -368 293 -431 405 -8 14 -26 41 -40 60 -86 115 -198 421 -215 587 -9 92 -12 103 -34 103 -11 0 -27 -8 -36 -18z m4126 -2617 c221 -28 487 -86 650 -142 518 -178 987 -475 1332 -844 497 -531 807 -1189 874 -1854 48 -480 -13 -944 -195 -1476 -132 -388 -481 -896 -796 -1158 -185 -154 -408 -309 -618 -429 -59 -34 -109 -62 -111 -62 -2 0 -53 -23 -112 -51 -373 -175 -712 -252 -1216 -273 -358 -15 -791 48 -1122 163 -300 104 -659 297 -876 469 -52 42 -97 78 -100 82 -3 3 -48 42 -101 87 -106 91 -224 212 -351 360 -129 152 -160 195 -303 423 -56 88 -113 206 -234 477 -69 155 -177 549 -207 758 -24 166 -24 524 0 690 60 416 159 731 347 1110 154 312 272 483 513 748 75 83 224 218 324 296 221 172 619 378 937 485 138 47 389 111 492 126 286 41 618 47 873 15z"></path>
        </g>
    </g>
</svg>